<mxfile host="app.diagrams.net" modified="2024-04-22T07:22:40.877Z" agent="Mozilla/5.0 (X11; Linux x86_64) AppleWebKit/537.36 (KHTML, like Gecko) Chrome/123.0.0.0 Safari/537.36" etag="kC224RQ-Nt8i_S1hNQri" version="24.2.5" type="device">
  <diagram id="i1iQk497gbXuGKNVAci3" name="Page-1">
    <mxGraphModel dx="1880" dy="975" grid="1" gridSize="10" guides="1" tooltips="1" connect="1" arrows="1" fold="1" page="1" pageScale="1" pageWidth="1169" pageHeight="1654" math="0" shadow="0">
      <root>
        <mxCell id="0" />
        <mxCell id="1" parent="0" />
        <mxCell id="5wslTM207FXUWwVa2kZF-27" value="" style="rounded=0;orthogonalLoop=1;jettySize=auto;html=1;" edge="1" parent="1" source="5wslTM207FXUWwVa2kZF-1" target="5wslTM207FXUWwVa2kZF-2">
          <mxGeometry relative="1" as="geometry" />
        </mxCell>
        <mxCell id="5wslTM207FXUWwVa2kZF-1" value="Действие" style="rounded=0;whiteSpace=wrap;html=1;" vertex="1" parent="1">
          <mxGeometry x="675" y="910" width="90" height="40" as="geometry" />
        </mxCell>
        <mxCell id="5wslTM207FXUWwVa2kZF-29" style="edgeStyle=orthogonalEdgeStyle;rounded=0;orthogonalLoop=1;jettySize=auto;html=1;" edge="1" parent="1" source="5wslTM207FXUWwVa2kZF-2" target="5wslTM207FXUWwVa2kZF-3">
          <mxGeometry relative="1" as="geometry">
            <Array as="points">
              <mxPoint x="720" y="1030" />
              <mxPoint x="145" y="1030" />
            </Array>
          </mxGeometry>
        </mxCell>
        <mxCell id="5wslTM207FXUWwVa2kZF-30" style="edgeStyle=orthogonalEdgeStyle;rounded=0;orthogonalLoop=1;jettySize=auto;html=1;" edge="1" parent="1" source="5wslTM207FXUWwVa2kZF-2" target="5wslTM207FXUWwVa2kZF-4">
          <mxGeometry relative="1" as="geometry">
            <Array as="points">
              <mxPoint x="720" y="1030" />
              <mxPoint x="365" y="1030" />
            </Array>
          </mxGeometry>
        </mxCell>
        <mxCell id="5wslTM207FXUWwVa2kZF-31" style="edgeStyle=orthogonalEdgeStyle;rounded=0;orthogonalLoop=1;jettySize=auto;html=1;" edge="1" parent="1" source="5wslTM207FXUWwVa2kZF-2" target="5wslTM207FXUWwVa2kZF-5">
          <mxGeometry relative="1" as="geometry">
            <Array as="points">
              <mxPoint x="720" y="1030" />
              <mxPoint x="560" y="1030" />
            </Array>
          </mxGeometry>
        </mxCell>
        <mxCell id="5wslTM207FXUWwVa2kZF-32" style="edgeStyle=orthogonalEdgeStyle;rounded=0;orthogonalLoop=1;jettySize=auto;html=1;" edge="1" parent="1" source="5wslTM207FXUWwVa2kZF-2" target="5wslTM207FXUWwVa2kZF-6">
          <mxGeometry relative="1" as="geometry">
            <Array as="points">
              <mxPoint x="720" y="1030" />
              <mxPoint x="800" y="1030" />
            </Array>
          </mxGeometry>
        </mxCell>
        <mxCell id="5wslTM207FXUWwVa2kZF-33" style="edgeStyle=orthogonalEdgeStyle;rounded=0;orthogonalLoop=1;jettySize=auto;html=1;" edge="1" parent="1" source="5wslTM207FXUWwVa2kZF-2" target="5wslTM207FXUWwVa2kZF-7">
          <mxGeometry relative="1" as="geometry">
            <Array as="points">
              <mxPoint x="720" y="1030" />
              <mxPoint x="995" y="1030" />
            </Array>
          </mxGeometry>
        </mxCell>
        <mxCell id="5wslTM207FXUWwVa2kZF-34" style="edgeStyle=orthogonalEdgeStyle;rounded=0;orthogonalLoop=1;jettySize=auto;html=1;entryX=0.5;entryY=0;entryDx=0;entryDy=0;" edge="1" parent="1" source="5wslTM207FXUWwVa2kZF-2" target="5wslTM207FXUWwVa2kZF-8">
          <mxGeometry relative="1" as="geometry">
            <Array as="points">
              <mxPoint x="720" y="1030" />
              <mxPoint x="25" y="1030" />
              <mxPoint x="25" y="1140" />
              <mxPoint x="225" y="1140" />
            </Array>
          </mxGeometry>
        </mxCell>
        <mxCell id="5wslTM207FXUWwVa2kZF-35" style="edgeStyle=orthogonalEdgeStyle;rounded=0;orthogonalLoop=1;jettySize=auto;html=1;" edge="1" parent="1" source="5wslTM207FXUWwVa2kZF-2" target="5wslTM207FXUWwVa2kZF-9">
          <mxGeometry relative="1" as="geometry">
            <Array as="points">
              <mxPoint x="720" y="1030" />
              <mxPoint x="25" y="1030" />
              <mxPoint x="25" y="1140" />
              <mxPoint x="505" y="1140" />
            </Array>
          </mxGeometry>
        </mxCell>
        <mxCell id="5wslTM207FXUWwVa2kZF-36" style="edgeStyle=orthogonalEdgeStyle;rounded=0;orthogonalLoop=1;jettySize=auto;html=1;" edge="1" parent="1" source="5wslTM207FXUWwVa2kZF-2" target="5wslTM207FXUWwVa2kZF-10">
          <mxGeometry relative="1" as="geometry">
            <Array as="points">
              <mxPoint x="720" y="1030" />
              <mxPoint x="25" y="1030" />
              <mxPoint x="25" y="1140" />
              <mxPoint x="745" y="1140" />
            </Array>
          </mxGeometry>
        </mxCell>
        <mxCell id="5wslTM207FXUWwVa2kZF-37" style="edgeStyle=orthogonalEdgeStyle;rounded=0;orthogonalLoop=1;jettySize=auto;html=1;" edge="1" parent="1" source="5wslTM207FXUWwVa2kZF-2" target="5wslTM207FXUWwVa2kZF-11">
          <mxGeometry relative="1" as="geometry">
            <Array as="points">
              <mxPoint x="720" y="1030" />
              <mxPoint x="25" y="1030" />
              <mxPoint x="25" y="1140" />
              <mxPoint x="965" y="1140" />
            </Array>
          </mxGeometry>
        </mxCell>
        <mxCell id="5wslTM207FXUWwVa2kZF-38" style="edgeStyle=orthogonalEdgeStyle;rounded=0;orthogonalLoop=1;jettySize=auto;html=1;" edge="1" parent="1" source="5wslTM207FXUWwVa2kZF-2" target="5wslTM207FXUWwVa2kZF-12">
          <mxGeometry relative="1" as="geometry">
            <Array as="points">
              <mxPoint x="720" y="1030" />
              <mxPoint x="25" y="1030" />
              <mxPoint x="25" y="1140" />
              <mxPoint x="1210" y="1140" />
            </Array>
          </mxGeometry>
        </mxCell>
        <mxCell id="5wslTM207FXUWwVa2kZF-39" style="edgeStyle=orthogonalEdgeStyle;rounded=0;orthogonalLoop=1;jettySize=auto;html=1;" edge="1" parent="1" source="5wslTM207FXUWwVa2kZF-2" target="5wslTM207FXUWwVa2kZF-13">
          <mxGeometry relative="1" as="geometry">
            <Array as="points">
              <mxPoint x="720" y="1030" />
              <mxPoint x="25" y="1030" />
              <mxPoint x="25" y="1250" />
              <mxPoint x="170" y="1250" />
            </Array>
          </mxGeometry>
        </mxCell>
        <mxCell id="5wslTM207FXUWwVa2kZF-41" style="edgeStyle=orthogonalEdgeStyle;rounded=0;orthogonalLoop=1;jettySize=auto;html=1;" edge="1" parent="1" source="5wslTM207FXUWwVa2kZF-2" target="5wslTM207FXUWwVa2kZF-14">
          <mxGeometry relative="1" as="geometry">
            <Array as="points">
              <mxPoint x="720" y="1030" />
              <mxPoint x="25" y="1030" />
              <mxPoint x="25" y="1250" />
              <mxPoint x="410" y="1250" />
            </Array>
          </mxGeometry>
        </mxCell>
        <mxCell id="5wslTM207FXUWwVa2kZF-42" style="edgeStyle=orthogonalEdgeStyle;rounded=0;orthogonalLoop=1;jettySize=auto;html=1;" edge="1" parent="1" source="5wslTM207FXUWwVa2kZF-2" target="5wslTM207FXUWwVa2kZF-15">
          <mxGeometry relative="1" as="geometry">
            <Array as="points">
              <mxPoint x="720" y="1030" />
              <mxPoint x="25" y="1030" />
              <mxPoint x="25" y="1250" />
              <mxPoint x="690" y="1250" />
            </Array>
          </mxGeometry>
        </mxCell>
        <mxCell id="5wslTM207FXUWwVa2kZF-2" value="АКО" style="ellipse;whiteSpace=wrap;html=1;aspect=fixed;" vertex="1" parent="1">
          <mxGeometry x="700" y="970" width="40" height="40" as="geometry" />
        </mxCell>
        <mxCell id="5wslTM207FXUWwVa2kZF-3" value="&lt;div&gt;Составление договора&lt;/div&gt;&lt;div&gt;&lt;br&gt;&lt;/div&gt;АКО Действие" style="rounded=0;whiteSpace=wrap;html=1;" vertex="1" parent="1">
          <mxGeometry x="65" y="1060" width="160" height="60" as="geometry" />
        </mxCell>
        <mxCell id="5wslTM207FXUWwVa2kZF-4" value="&lt;div&gt;Подписание договора с клиентом&lt;/div&gt;&lt;div&gt;&lt;br&gt;&lt;/div&gt;АКО Действие" style="rounded=0;whiteSpace=wrap;html=1;" vertex="1" parent="1">
          <mxGeometry x="265" y="1060" width="200" height="60" as="geometry" />
        </mxCell>
        <mxCell id="5wslTM207FXUWwVa2kZF-5" value="&lt;div&gt;Расчет с клиентом&lt;/div&gt;&lt;div&gt;&lt;br&gt;&lt;/div&gt;АКО Действие" style="rounded=0;whiteSpace=wrap;html=1;" vertex="1" parent="1">
          <mxGeometry x="505" y="1060" width="150" height="60" as="geometry" />
        </mxCell>
        <mxCell id="5wslTM207FXUWwVa2kZF-6" value="&lt;div&gt;Публикация рекламного поста&lt;/div&gt;&lt;div&gt;&lt;br&gt;&lt;/div&gt;АКО Действие" style="rounded=0;whiteSpace=wrap;html=1;" vertex="1" parent="1">
          <mxGeometry x="700" y="1060" width="200" height="60" as="geometry" />
        </mxCell>
        <mxCell id="5wslTM207FXUWwVa2kZF-7" value="&lt;div&gt;Сбор статистики по рекламному посту&lt;/div&gt;&lt;div&gt;&lt;br&gt;&lt;/div&gt;АКО Действие" style="rounded=0;whiteSpace=wrap;html=1;" vertex="1" parent="1">
          <mxGeometry x="925" y="1060" width="240" height="60" as="geometry" />
        </mxCell>
        <mxCell id="5wslTM207FXUWwVa2kZF-8" value="&lt;div&gt;Изготовление пробной партии рекламной продукции&lt;/div&gt;&lt;div&gt;&lt;br&gt;&lt;/div&gt;АКО Действие" style="rounded=0;whiteSpace=wrap;html=1;" vertex="1" parent="1">
          <mxGeometry x="105" y="1160" width="240" height="60" as="geometry" />
        </mxCell>
        <mxCell id="5wslTM207FXUWwVa2kZF-9" value="&lt;div&gt;Проверка качества партии рекламной продукции&lt;/div&gt;&lt;div&gt;&lt;br&gt;&lt;/div&gt;АКО Действие" style="rounded=0;whiteSpace=wrap;html=1;" vertex="1" parent="1">
          <mxGeometry x="385" y="1160" width="240" height="60" as="geometry" />
        </mxCell>
        <mxCell id="5wslTM207FXUWwVa2kZF-10" value="&lt;div&gt;Дообучение сотрудников&lt;/div&gt;&lt;div&gt;&lt;br&gt;&lt;/div&gt;АКО Действие" style="rounded=0;whiteSpace=wrap;html=1;" vertex="1" parent="1">
          <mxGeometry x="645" y="1160" width="180" height="60" as="geometry" />
        </mxCell>
        <mxCell id="5wslTM207FXUWwVa2kZF-11" value="&lt;div&gt;Изготовление финальной партии рекламной продукции&lt;/div&gt;&lt;div&gt;&lt;br&gt;&lt;/div&gt;АКО Действие" style="rounded=0;whiteSpace=wrap;html=1;" vertex="1" parent="1">
          <mxGeometry x="845" y="1160" width="230" height="60" as="geometry" />
        </mxCell>
        <mxCell id="5wslTM207FXUWwVa2kZF-12" value="&lt;div&gt;Аренда мест под щиты и баннеры&lt;/div&gt;&lt;div&gt;&lt;br&gt;&lt;/div&gt;АКО Действие" style="rounded=0;whiteSpace=wrap;html=1;" vertex="1" parent="1">
          <mxGeometry x="1105" y="1160" width="210" height="60" as="geometry" />
        </mxCell>
        <mxCell id="5wslTM207FXUWwVa2kZF-13" value="&lt;div&gt;Найм студентов&lt;/div&gt;&lt;div&gt;&lt;br&gt;&lt;/div&gt;АКО Действие" style="rounded=0;whiteSpace=wrap;html=1;" vertex="1" parent="1">
          <mxGeometry x="105" y="1280" width="130" height="60" as="geometry" />
        </mxCell>
        <mxCell id="5wslTM207FXUWwVa2kZF-14" value="&lt;div&gt;Отчет о результатах рекламной кампании&lt;/div&gt;&lt;div&gt;&lt;br&gt;&lt;/div&gt;АКО Действие" style="rounded=0;whiteSpace=wrap;html=1;" vertex="1" parent="1">
          <mxGeometry x="305" y="1280" width="210" height="60" as="geometry" />
        </mxCell>
        <mxCell id="5wslTM207FXUWwVa2kZF-15" value="&lt;div&gt;Завершение работы над заказом&lt;/div&gt;&lt;div&gt;&lt;br&gt;&lt;/div&gt;АКО Действие" style="rounded=0;whiteSpace=wrap;html=1;" vertex="1" parent="1">
          <mxGeometry x="585" y="1280" width="210" height="60" as="geometry" />
        </mxCell>
        <mxCell id="5wslTM207FXUWwVa2kZF-61" style="edgeStyle=orthogonalEdgeStyle;rounded=0;orthogonalLoop=1;jettySize=auto;html=1;" edge="1" parent="1" source="5wslTM207FXUWwVa2kZF-16" target="5wslTM207FXUWwVa2kZF-43">
          <mxGeometry relative="1" as="geometry">
            <mxPoint x="282.5" y="519.9969230769228" as="sourcePoint" />
          </mxGeometry>
        </mxCell>
        <mxCell id="5wslTM207FXUWwVa2kZF-64" style="edgeStyle=orthogonalEdgeStyle;rounded=0;orthogonalLoop=1;jettySize=auto;html=1;" edge="1" parent="1" source="5wslTM207FXUWwVa2kZF-16" target="5wslTM207FXUWwVa2kZF-63">
          <mxGeometry relative="1" as="geometry" />
        </mxCell>
        <mxCell id="5wslTM207FXUWwVa2kZF-16" value="Клиент&lt;div&gt;&lt;/div&gt;" style="rounded=0;whiteSpace=wrap;html=1;" vertex="1" parent="1">
          <mxGeometry x="282.5" y="520" width="85" height="40" as="geometry" />
        </mxCell>
        <mxCell id="5wslTM207FXUWwVa2kZF-17" value="Заказ&lt;div&gt;&lt;/div&gt;" style="rounded=0;whiteSpace=wrap;html=1;" vertex="1" parent="1">
          <mxGeometry x="300" y="689.92" width="85" height="40" as="geometry" />
        </mxCell>
        <mxCell id="5wslTM207FXUWwVa2kZF-18" value="Заявка&lt;div&gt;&lt;/div&gt;" style="rounded=0;whiteSpace=wrap;html=1;" vertex="1" parent="1">
          <mxGeometry x="197.5" y="689.92" width="85" height="40" as="geometry" />
        </mxCell>
        <mxCell id="5wslTM207FXUWwVa2kZF-54" style="edgeStyle=orthogonalEdgeStyle;rounded=0;orthogonalLoop=1;jettySize=auto;html=1;" edge="1" parent="1" source="5wslTM207FXUWwVa2kZF-19" target="5wslTM207FXUWwVa2kZF-52">
          <mxGeometry relative="1" as="geometry" />
        </mxCell>
        <mxCell id="5wslTM207FXUWwVa2kZF-78" style="edgeStyle=orthogonalEdgeStyle;rounded=0;orthogonalLoop=1;jettySize=auto;html=1;" edge="1" parent="1" source="5wslTM207FXUWwVa2kZF-19" target="5wslTM207FXUWwVa2kZF-57">
          <mxGeometry relative="1" as="geometry">
            <Array as="points">
              <mxPoint x="96" y="750" />
              <mxPoint x="240" y="750" />
            </Array>
          </mxGeometry>
        </mxCell>
        <mxCell id="5wslTM207FXUWwVa2kZF-19" value="Договор&lt;div&gt;&lt;/div&gt;" style="rounded=0;whiteSpace=wrap;html=1;" vertex="1" parent="1">
          <mxGeometry x="53.75" y="689.92" width="85" height="40" as="geometry" />
        </mxCell>
        <mxCell id="5wslTM207FXUWwVa2kZF-73" style="edgeStyle=orthogonalEdgeStyle;rounded=0;orthogonalLoop=1;jettySize=auto;html=1;" edge="1" parent="1" source="5wslTM207FXUWwVa2kZF-20" target="5wslTM207FXUWwVa2kZF-58">
          <mxGeometry relative="1" as="geometry">
            <mxPoint x="636.25" y="679.92" as="targetPoint" />
          </mxGeometry>
        </mxCell>
        <mxCell id="5wslTM207FXUWwVa2kZF-20" value="Счет на оплату&lt;div&gt;&lt;/div&gt;" style="rounded=0;whiteSpace=wrap;html=1;" vertex="1" parent="1">
          <mxGeometry x="405" y="689.92" width="100" height="40" as="geometry" />
        </mxCell>
        <mxCell id="5wslTM207FXUWwVa2kZF-84" style="edgeStyle=orthogonalEdgeStyle;rounded=0;orthogonalLoop=1;jettySize=auto;html=1;entryX=0.75;entryY=0;entryDx=0;entryDy=0;" edge="1" parent="1" source="5wslTM207FXUWwVa2kZF-59" target="5wslTM207FXUWwVa2kZF-6">
          <mxGeometry relative="1" as="geometry">
            <mxPoint x="1170" y="990" as="sourcePoint" />
            <Array as="points">
              <mxPoint x="1045" y="1010" />
              <mxPoint x="850" y="1010" />
            </Array>
          </mxGeometry>
        </mxCell>
        <mxCell id="5wslTM207FXUWwVa2kZF-85" style="edgeStyle=orthogonalEdgeStyle;rounded=0;orthogonalLoop=1;jettySize=auto;html=1;" edge="1" parent="1" source="5wslTM207FXUWwVa2kZF-59" target="5wslTM207FXUWwVa2kZF-7">
          <mxGeometry relative="1" as="geometry">
            <mxPoint x="1170" y="990" as="sourcePoint" />
            <Array as="points">
              <mxPoint x="1045" y="1010" />
              <mxPoint x="1045" y="1010" />
            </Array>
          </mxGeometry>
        </mxCell>
        <mxCell id="5wslTM207FXUWwVa2kZF-46" style="edgeStyle=orthogonalEdgeStyle;rounded=0;orthogonalLoop=1;jettySize=auto;html=1;" edge="1" parent="1" source="5wslTM207FXUWwVa2kZF-22" target="5wslTM207FXUWwVa2kZF-44">
          <mxGeometry relative="1" as="geometry" />
        </mxCell>
        <mxCell id="5wslTM207FXUWwVa2kZF-74" style="edgeStyle=orthogonalEdgeStyle;rounded=0;orthogonalLoop=1;jettySize=auto;html=1;" edge="1" parent="1" source="5wslTM207FXUWwVa2kZF-22" target="5wslTM207FXUWwVa2kZF-56">
          <mxGeometry relative="1" as="geometry">
            <Array as="points">
              <mxPoint x="815" y="740" />
              <mxPoint x="730" y="740" />
            </Array>
          </mxGeometry>
        </mxCell>
        <mxCell id="5wslTM207FXUWwVa2kZF-22" value="Партия рекламной продукции&lt;div&gt;&lt;/div&gt;" style="rounded=0;whiteSpace=wrap;html=1;" vertex="1" parent="1">
          <mxGeometry x="750" y="670" width="130" height="40" as="geometry" />
        </mxCell>
        <mxCell id="5wslTM207FXUWwVa2kZF-23" value="Дополнительное соглашение к договору&amp;nbsp;&lt;div&gt;&lt;/div&gt;&lt;div&gt;&lt;br&gt;&lt;/div&gt;&lt;div&gt;АКО Договор&lt;/div&gt;" style="rounded=0;whiteSpace=wrap;html=1;" vertex="1" parent="1">
          <mxGeometry x="16.25" y="859.92" width="160" height="60" as="geometry" />
        </mxCell>
        <mxCell id="5wslTM207FXUWwVa2kZF-24" value="Пробная партия рекалмной продукции, соответствующая ГОСТ&lt;div&gt;&lt;/div&gt;&lt;div&gt;&lt;br&gt;&lt;/div&gt;&lt;div&gt;АКО Партия рекламной продукции&lt;/div&gt;" style="rounded=0;whiteSpace=wrap;html=1;" vertex="1" parent="1">
          <mxGeometry x="1040" y="755" width="260" height="70" as="geometry" />
        </mxCell>
        <mxCell id="5wslTM207FXUWwVa2kZF-25" value="Пробная партия рекалмной продукции,&amp;nbsp;&lt;div&gt;не соответствующая ГОСТ&lt;div&gt;&lt;/div&gt;&lt;div&gt;&lt;br&gt;&lt;/div&gt;&lt;div&gt;АКО Партия рекламной продукции&lt;/div&gt;&lt;/div&gt;" style="rounded=0;whiteSpace=wrap;html=1;" vertex="1" parent="1">
          <mxGeometry x="1040" y="650" width="260" height="70" as="geometry" />
        </mxCell>
        <mxCell id="5wslTM207FXUWwVa2kZF-26" value="Финальная партия рекалмной продукции&lt;div&gt;&lt;div&gt;&lt;/div&gt;&lt;div&gt;&lt;br&gt;&lt;/div&gt;&lt;div&gt;АКО Партия рекламной продукции&lt;/div&gt;&lt;/div&gt;" style="rounded=0;whiteSpace=wrap;html=1;" vertex="1" parent="1">
          <mxGeometry x="1040" y="860" width="260" height="70" as="geometry" />
        </mxCell>
        <mxCell id="5wslTM207FXUWwVa2kZF-69" style="edgeStyle=orthogonalEdgeStyle;rounded=0;orthogonalLoop=1;jettySize=auto;html=1;" edge="1" parent="1" source="5wslTM207FXUWwVa2kZF-43" target="5wslTM207FXUWwVa2kZF-19">
          <mxGeometry relative="1" as="geometry">
            <Array as="points">
              <mxPoint x="144.5" y="649.92" />
              <mxPoint x="96.5" y="649.92" />
            </Array>
          </mxGeometry>
        </mxCell>
        <mxCell id="5wslTM207FXUWwVa2kZF-70" style="edgeStyle=orthogonalEdgeStyle;rounded=0;orthogonalLoop=1;jettySize=auto;html=1;" edge="1" parent="1" source="5wslTM207FXUWwVa2kZF-43" target="5wslTM207FXUWwVa2kZF-18">
          <mxGeometry relative="1" as="geometry">
            <Array as="points">
              <mxPoint x="144.5" y="649.92" />
              <mxPoint x="240.5" y="649.92" />
            </Array>
          </mxGeometry>
        </mxCell>
        <mxCell id="5wslTM207FXUWwVa2kZF-72" style="edgeStyle=orthogonalEdgeStyle;rounded=0;orthogonalLoop=1;jettySize=auto;html=1;" edge="1" parent="1" source="5wslTM207FXUWwVa2kZF-43" target="5wslTM207FXUWwVa2kZF-17">
          <mxGeometry relative="1" as="geometry">
            <Array as="points">
              <mxPoint x="144.5" y="649.92" />
              <mxPoint x="342.5" y="649.92" />
            </Array>
          </mxGeometry>
        </mxCell>
        <mxCell id="5wslTM207FXUWwVa2kZF-43" value="Слот &quot;ФИО Клиента&quot;" style="ellipse;whiteSpace=wrap;html=1;" vertex="1" parent="1">
          <mxGeometry x="70" y="569.92" width="150" height="50" as="geometry" />
        </mxCell>
        <mxCell id="5wslTM207FXUWwVa2kZF-49" style="edgeStyle=orthogonalEdgeStyle;rounded=0;orthogonalLoop=1;jettySize=auto;html=1;" edge="1" parent="1" source="5wslTM207FXUWwVa2kZF-44" target="5wslTM207FXUWwVa2kZF-25">
          <mxGeometry relative="1" as="geometry">
            <Array as="points">
              <mxPoint x="960" y="790" />
              <mxPoint x="960" y="685" />
            </Array>
          </mxGeometry>
        </mxCell>
        <mxCell id="5wslTM207FXUWwVa2kZF-50" style="edgeStyle=orthogonalEdgeStyle;rounded=0;orthogonalLoop=1;jettySize=auto;html=1;" edge="1" parent="1" source="5wslTM207FXUWwVa2kZF-44" target="5wslTM207FXUWwVa2kZF-24">
          <mxGeometry relative="1" as="geometry" />
        </mxCell>
        <mxCell id="5wslTM207FXUWwVa2kZF-51" style="edgeStyle=orthogonalEdgeStyle;rounded=0;orthogonalLoop=1;jettySize=auto;html=1;" edge="1" parent="1" source="5wslTM207FXUWwVa2kZF-44" target="5wslTM207FXUWwVa2kZF-26">
          <mxGeometry relative="1" as="geometry">
            <Array as="points">
              <mxPoint x="960" y="790" />
              <mxPoint x="960" y="895" />
            </Array>
          </mxGeometry>
        </mxCell>
        <mxCell id="5wslTM207FXUWwVa2kZF-44" value="АКО" style="ellipse;whiteSpace=wrap;html=1;aspect=fixed;" vertex="1" parent="1">
          <mxGeometry x="875" y="770" width="40" height="40" as="geometry" />
        </mxCell>
        <mxCell id="5wslTM207FXUWwVa2kZF-55" style="edgeStyle=orthogonalEdgeStyle;rounded=0;orthogonalLoop=1;jettySize=auto;html=1;" edge="1" parent="1" source="5wslTM207FXUWwVa2kZF-52" target="5wslTM207FXUWwVa2kZF-23">
          <mxGeometry relative="1" as="geometry" />
        </mxCell>
        <mxCell id="5wslTM207FXUWwVa2kZF-52" value="АКО" style="ellipse;whiteSpace=wrap;html=1;aspect=fixed;" vertex="1" parent="1">
          <mxGeometry x="76.25" y="769.92" width="40" height="40" as="geometry" />
        </mxCell>
        <mxCell id="5wslTM207FXUWwVa2kZF-75" style="rounded=0;orthogonalLoop=1;jettySize=auto;html=1;edgeStyle=orthogonalEdgeStyle;" edge="1" parent="1" source="5wslTM207FXUWwVa2kZF-56" target="5wslTM207FXUWwVa2kZF-8">
          <mxGeometry relative="1" as="geometry">
            <Array as="points">
              <mxPoint x="730" y="890" />
              <mxPoint x="250" y="890" />
            </Array>
          </mxGeometry>
        </mxCell>
        <mxCell id="5wslTM207FXUWwVa2kZF-76" style="rounded=0;orthogonalLoop=1;jettySize=auto;html=1;edgeStyle=orthogonalEdgeStyle;" edge="1" parent="1" source="5wslTM207FXUWwVa2kZF-56" target="5wslTM207FXUWwVa2kZF-11">
          <mxGeometry relative="1" as="geometry">
            <Array as="points">
              <mxPoint x="730" y="890" />
              <mxPoint x="910" y="890" />
            </Array>
          </mxGeometry>
        </mxCell>
        <mxCell id="5wslTM207FXUWwVa2kZF-56" value="Слот &quot;Содержание&quot;" style="ellipse;whiteSpace=wrap;html=1;" vertex="1" parent="1">
          <mxGeometry x="655" y="775" width="150" height="50" as="geometry" />
        </mxCell>
        <mxCell id="5wslTM207FXUWwVa2kZF-80" style="edgeStyle=orthogonalEdgeStyle;rounded=0;orthogonalLoop=1;jettySize=auto;html=1;entryX=0.75;entryY=0;entryDx=0;entryDy=0;" edge="1" parent="1" source="5wslTM207FXUWwVa2kZF-57" target="5wslTM207FXUWwVa2kZF-4">
          <mxGeometry relative="1" as="geometry" />
        </mxCell>
        <mxCell id="5wslTM207FXUWwVa2kZF-81" style="edgeStyle=orthogonalEdgeStyle;rounded=0;orthogonalLoop=1;jettySize=auto;html=1;entryX=0.75;entryY=0;entryDx=0;entryDy=0;" edge="1" parent="1" source="5wslTM207FXUWwVa2kZF-57" target="5wslTM207FXUWwVa2kZF-3">
          <mxGeometry relative="1" as="geometry" />
        </mxCell>
        <mxCell id="5wslTM207FXUWwVa2kZF-57" value="Слот &quot;ID Договора&quot;" style="ellipse;whiteSpace=wrap;html=1;" vertex="1" parent="1">
          <mxGeometry x="165" y="777" width="150" height="50" as="geometry" />
        </mxCell>
        <mxCell id="5wslTM207FXUWwVa2kZF-79" style="edgeStyle=orthogonalEdgeStyle;rounded=0;orthogonalLoop=1;jettySize=auto;html=1;" edge="1" parent="1" source="5wslTM207FXUWwVa2kZF-58" target="5wslTM207FXUWwVa2kZF-5">
          <mxGeometry relative="1" as="geometry" />
        </mxCell>
        <mxCell id="5wslTM207FXUWwVa2kZF-58" value="Слот &quot;ID Счета&quot;" style="ellipse;whiteSpace=wrap;html=1;" vertex="1" parent="1">
          <mxGeometry x="365" y="765" width="150" height="50" as="geometry" />
        </mxCell>
        <mxCell id="5wslTM207FXUWwVa2kZF-59" value="Слот &quot;ID Рекалмного поста&quot;" style="ellipse;whiteSpace=wrap;html=1;" vertex="1" parent="1">
          <mxGeometry x="970" y="940" width="150" height="50" as="geometry" />
        </mxCell>
        <mxCell id="5wslTM207FXUWwVa2kZF-65" style="edgeStyle=orthogonalEdgeStyle;rounded=0;orthogonalLoop=1;jettySize=auto;html=1;" edge="1" parent="1" source="5wslTM207FXUWwVa2kZF-63" target="5wslTM207FXUWwVa2kZF-20">
          <mxGeometry relative="1" as="geometry">
            <mxPoint x="561.25" y="654.92" as="sourcePoint" />
          </mxGeometry>
        </mxCell>
        <mxCell id="5wslTM207FXUWwVa2kZF-63" value="Слот &quot;Способ оплаты&quot;" style="ellipse;whiteSpace=wrap;html=1;" vertex="1" parent="1">
          <mxGeometry x="380" y="580" width="150" height="50" as="geometry" />
        </mxCell>
        <mxCell id="5wslTM207FXUWwVa2kZF-89" style="edgeStyle=orthogonalEdgeStyle;rounded=0;orthogonalLoop=1;jettySize=auto;html=1;" edge="1" parent="1" source="5wslTM207FXUWwVa2kZF-88" target="5wslTM207FXUWwVa2kZF-59">
          <mxGeometry relative="1" as="geometry" />
        </mxCell>
        <mxCell id="5wslTM207FXUWwVa2kZF-88" value="Рекламный пост в соц. сетях&lt;span style=&quot;color: rgba(0, 0, 0, 0); font-family: monospace; font-size: 0px; text-align: start; text-wrap: nowrap;&quot;&gt;%3CmxGraphModel%3E%3Croot%3E%3CmxCell%20id%3D%220%22%2F%3E%3CmxCell%20id%3D%221%22%20parent%3D%220%22%2F%3E%3CmxCell%20id%3D%222%22%20value%3D%22%D0%A1%D1%87%D0%B5%D1%82%20%D0%BD%D0%B0%20%D0%BE%D0%BF%D0%BB%D0%B0%D1%82%D1%83%26lt%3Bdiv%26gt%3B%26lt%3B%2Fdiv%26gt%3B%22%20style%3D%22rounded%3D0%3BwhiteSpace%3Dwrap%3Bhtml%3D1%3B%22%20vertex%3D%221%22%20parent%3D%221%22%3E%3CmxGeometry%20x%3D%22500%22%20y%3D%22540%22%20width%3D%22100%22%20height%3D%2240%22%20as%3D%22geometry%22%2F%3E%3C%2FmxCell%3E%3C%2Froot%3E%3C%2FmxGraphModel%3E&lt;/span&gt;&lt;div&gt;&lt;/div&gt;" style="rounded=0;whiteSpace=wrap;html=1;" vertex="1" parent="1">
          <mxGeometry x="1190" y="945" width="100" height="40" as="geometry" />
        </mxCell>
        <mxCell id="5wslTM207FXUWwVa2kZF-92" style="edgeStyle=orthogonalEdgeStyle;rounded=0;orthogonalLoop=1;jettySize=auto;html=1;" edge="1" parent="1" source="5wslTM207FXUWwVa2kZF-90" target="5wslTM207FXUWwVa2kZF-91">
          <mxGeometry relative="1" as="geometry" />
        </mxCell>
        <mxCell id="5wslTM207FXUWwVa2kZF-90" value="Агентство&lt;div&gt;&lt;/div&gt;" style="rounded=0;whiteSpace=wrap;html=1;" vertex="1" parent="1">
          <mxGeometry x="547.5" y="689.9200000000001" width="100" height="40" as="geometry" />
        </mxCell>
        <mxCell id="5wslTM207FXUWwVa2kZF-94" style="edgeStyle=orthogonalEdgeStyle;rounded=0;orthogonalLoop=1;jettySize=auto;html=1;entryX=0.25;entryY=0;entryDx=0;entryDy=0;" edge="1" parent="1" source="5wslTM207FXUWwVa2kZF-91" target="5wslTM207FXUWwVa2kZF-10">
          <mxGeometry relative="1" as="geometry" />
        </mxCell>
        <mxCell id="5wslTM207FXUWwVa2kZF-98" style="rounded=0;orthogonalLoop=1;jettySize=auto;html=1;entryX=0.75;entryY=0;entryDx=0;entryDy=0;" edge="1" parent="1" source="5wslTM207FXUWwVa2kZF-91" target="5wslTM207FXUWwVa2kZF-13">
          <mxGeometry relative="1" as="geometry">
            <Array as="points">
              <mxPoint x="530" y="730" />
              <mxPoint x="520" y="490" />
              <mxPoint x="10" y="490" />
              <mxPoint x="20" y="1270" />
              <mxPoint x="210" y="1260" />
            </Array>
          </mxGeometry>
        </mxCell>
        <mxCell id="5wslTM207FXUWwVa2kZF-99" style="rounded=0;orthogonalLoop=1;jettySize=auto;html=1;entryX=0.75;entryY=0;entryDx=0;entryDy=0;" edge="1" parent="1" source="5wslTM207FXUWwVa2kZF-91" target="5wslTM207FXUWwVa2kZF-14">
          <mxGeometry relative="1" as="geometry">
            <Array as="points">
              <mxPoint x="530" y="730" />
              <mxPoint x="520" y="490" />
              <mxPoint x="10" y="490" />
              <mxPoint x="20" y="1270" />
              <mxPoint x="463" y="1260" />
            </Array>
          </mxGeometry>
        </mxCell>
        <mxCell id="5wslTM207FXUWwVa2kZF-100" style="rounded=0;orthogonalLoop=1;jettySize=auto;html=1;entryX=0.75;entryY=0;entryDx=0;entryDy=0;" edge="1" parent="1" source="5wslTM207FXUWwVa2kZF-91" target="5wslTM207FXUWwVa2kZF-15">
          <mxGeometry relative="1" as="geometry">
            <Array as="points">
              <mxPoint x="770" y="620" />
              <mxPoint x="1320" y="620" />
              <mxPoint x="1320" y="1260" />
              <mxPoint x="740" y="1260" />
            </Array>
          </mxGeometry>
        </mxCell>
        <mxCell id="5wslTM207FXUWwVa2kZF-91" value="Слот &quot;Исполнитель&quot;" style="ellipse;whiteSpace=wrap;html=1;" vertex="1" parent="1">
          <mxGeometry x="550" y="765" width="95" height="44.92" as="geometry" />
        </mxCell>
        <mxCell id="5wslTM207FXUWwVa2kZF-93" style="edgeStyle=orthogonalEdgeStyle;rounded=0;orthogonalLoop=1;jettySize=auto;html=1;entryX=0.394;entryY=0.041;entryDx=0;entryDy=0;entryPerimeter=0;" edge="1" parent="1" source="5wslTM207FXUWwVa2kZF-91" target="5wslTM207FXUWwVa2kZF-9">
          <mxGeometry relative="1" as="geometry" />
        </mxCell>
        <mxCell id="5wslTM207FXUWwVa2kZF-97" value="" style="endArrow=classic;html=1;rounded=0;entryX=0.75;entryY=0;entryDx=0;entryDy=0;" edge="1" parent="1" source="5wslTM207FXUWwVa2kZF-91" target="5wslTM207FXUWwVa2kZF-12">
          <mxGeometry width="50" height="50" relative="1" as="geometry">
            <mxPoint x="660" y="1000" as="sourcePoint" />
            <mxPoint x="710" y="950" as="targetPoint" />
            <Array as="points">
              <mxPoint x="770" y="620" />
              <mxPoint x="1320" y="620" />
              <mxPoint x="1320" y="1100" />
              <mxPoint x="1260" y="1100" />
            </Array>
          </mxGeometry>
        </mxCell>
      </root>
    </mxGraphModel>
  </diagram>
</mxfile>
